<svg width="163" height="90" viewBox="0 0 163 90" fill="none" xmlns="http://www.w3.org/2000/svg">
<path d="M7.53302 11.4582C12.8905 32.7205 20.7701 53.3354 26.9752 74.3639C28.1784 78.4413 29.4729 82.6434 30.3532 86.8249C30.5221 87.627 30.0056 85.2229 29.8278 84.4228" stroke="#131520" stroke-width="3" stroke-linecap="round"/>
<path d="M28.4766 2C28.4766 12.2704 26.1084 22.21 22.3962 31.8013C17.8123 43.6446 -0.461246 76.5554 2.27837 64.1549C5.83771 48.0442 28.6714 32.1628 44.6909 39.3079C55.3337 44.0549 62.2924 55.4279 66.5353 65.6563C69.9212 73.8189 69.3401 79.6119 70.3637 87.8009" stroke="#131520" stroke-width="3" stroke-linecap="round"/>
<path d="M28.4765 30.375C35.4741 33.6236 38.8539 46.3854 41.6132 52.6697C42.6184 54.9591 43.5577 57.2769 44.5408 59.5758C45.3262 61.4125 46.4938 66.7416 47.2807 64.9055C48.3388 62.4365 46.6862 59.5643 46.2673 56.9109C45.3001 50.7851 44.8746 48.3358 44.203 42.1228C44.0873 41.053 41.9217 30.9978 45.4416 30.2999C48.7028 29.6533 52.8624 33.965 54.5622 36.0425C57.3079 39.3984 59.0119 43.4659 61.4307 47.0397C64.673 51.8301 66.0307 51.0423 65.5594 45.0129C64.6656 33.579 55.417 0.507265 59.8543 11.0829C62.8177 18.1456 65.1051 25.5955 67.3985 32.8897C68.7399 37.156 69.7736 41.5231 71.302 45.726C72.391 48.7211 72.0401 44.3461 72.0526 43.9245C72.1344 41.1703 71.2532 33.2228 75.0178 31.8763C79.1288 30.4059 82.417 37.6599 83.1249 40.2087C84.4059 44.8201 79.1909 50.3653 84.7013 44.4875C86.2022 42.8865 89.3373 34.887 91.3823 35.1792C101.899 36.6816 95.3002 17.5763 93.7469 12.8845C93.2107 11.265 92.5986 9.67115 91.9828 8.08022C91.8475 7.73058 91.3646 6.71524 91.4949 7.06681C91.8749 8.09296 92.2924 9.10557 92.7335 10.107C95.586 16.583 98.5549 23.1401 102.342 29.1363C105.757 34.5432 109.377 31.296 114.878 29.7744C116.565 29.3079 119.45 26.7219 121.296 27.7101C127.654 31.1127 133.145 43.1226 135.972 48.7663C139.786 56.3821 147.413 70.2951 142.915 79.3559C140.934 83.3478 137.062 83.2577 133.795 81.27C129.236 78.497 128.616 74.5303 129.141 69.4095C130.077 60.275 143.653 18.6229 156.465 36.4178C158.23 38.8688 162.219 44.5387 160.518 48.0907C158.678 51.936 155.546 45.971 154.813 45.2381" stroke="#131520" stroke-width="3" stroke-linecap="round"/>
<path d="M41.9885 18.2143C43.8751 17.3758 45.4046 17.1945 47.3933 16.8631" stroke="#131520" stroke-width="3" stroke-linecap="round"/>
</svg>
